<?xml version="1.0" encoding="UTF-8"?>
<svg id="Layer_2" data-name="Layer 2" xmlns="http://www.w3.org/2000/svg" viewBox="0 0 546.33 477.85">
  <defs>
    <style>
      .cls-1 {
        fill: #3c93ff;
      }

      .cls-2 {
        fill: #3c07ff;
      }
    </style>
  </defs>
  <g id="Layer_2-2" data-name="Layer 2">
    <path class="cls-2" d="m534.44,321.13l-26.79-5.36c2.68-16.07,5.36-32.15,5.36-48.22s-1.34-32.15-5.36-48.22c-2.68-16.07-8.04-30.81-13.39-45.54-6.7-14.73-13.39-28.13-22.77-41.52-8.04-13.39-18.75-24.11-29.47-36.17-10.72-10.72-22.77-21.43-36.17-29.47-13.39-8.04-26.79-16.07-41.52-22.77-14.73-6.7-29.47-10.72-45.54-13.39-32.15-6.7-65.63-6.7-97.78,0-16.07,2.68-30.81,8.04-45.54,13.39-14.73,6.7-28.13,13.39-41.52,22.77-13.39,8.04-25.45,18.75-36.17,29.47-10.72,10.72-21.43,22.77-29.47,36.17-8.04,13.39-16.07,26.79-22.77,41.52-6.7,14.73-10.72,29.47-13.39,45.54-2.68,16.07-5.36,32.15-5.36,48.22s1.34,32.15,5.36,48.22l-26.79,5.36c-4.02-17.41-5.36-36.17-5.36-53.58s1.34-36.17,5.36-53.58c4.02-17.41,9.38-33.49,16.07-50.9,6.7-16.07,14.73-30.81,24.11-45.54s20.09-28.13,32.15-40.18c12.06-12.06,25.45-22.77,40.18-32.15,14.73-9.38,29.47-17.41,45.54-24.11,16.07-6.7,33.49-12.06,50.9-16.07,34.83-6.7,72.33-6.7,108.5,0,17.41,4.02,33.49,9.38,50.9,16.07,16.07,6.7,30.81,14.73,45.54,24.11,14.73,9.38,28.13,20.09,40.18,32.15,12.06,12.06,22.77,25.45,32.15,40.18,9.38,14.73,17.41,29.47,24.11,45.54,6.7,16.07,12.06,33.49,16.07,50.9s5.36,36.17,5.36,53.58,0,36.17-2.68,53.58Z"/>
    <path class="cls-2" d="m514.35,359.98l-13.39-2.68c2.68-16.07,5.36-32.15,5.36-48.22s-1.34-32.15-5.36-48.22c-2.68-14.73-8.04-29.47-13.39-44.2-5.36-13.39-13.39-28.13-21.43-40.18-8.04-12.06-17.41-24.11-28.13-34.83-10.72-10.72-22.77-20.09-34.83-29.47-12.06-8.04-25.45-16.07-40.18-21.43-14.73-6.7-29.47-10.72-44.2-13.39-30.81-6.7-62.95-6.7-95.1,0-14.73,2.68-29.47,8.04-44.2,13.39-13.39,5.36-26.79,13.39-40.18,21.43-12.06,8.04-24.11,18.75-34.83,29.47-10.72,10.72-20.09,22.77-28.13,34.83-8.04,12.06-16.07,26.79-21.43,40.18-5.36,14.73-10.72,29.47-13.39,44.2-2.68,16.07-5.36,32.15-5.36,48.22s1.34,32.15,5.36,48.22l-13.39,2.68c-2.68-16.07-5.36-33.49-5.36-50.9s1.34-33.49,5.36-50.9c2.68-16.07,8.04-32.15,14.73-46.88s13.39-29.47,22.77-42.86c9.38-13.39,18.75-25.45,30.81-37.5,10.72-10.72,24.11-21.43,36.17-30.81,13.39-9.38,26.79-17.41,41.52-22.77,14.73-6.7,30.81-10.72,46.88-14.73,32.15-6.7,66.97-6.7,100.46,0,16.07,2.68,32.15,8.04,46.88,14.73,14.73,6.7,29.47,13.39,41.52,22.77,13.39,9.38,25.45,18.75,36.17,30.81,10.72,10.72,21.43,24.11,30.81,37.5s16.07,28.13,22.77,42.86c6.7,14.73,10.72,30.81,14.73,46.88,2.68,16.07,5.36,33.49,5.36,50.9s-1.34,34.83-5.36,50.9h0Z"/>
    <path class="cls-2" d="m101.8,286.31l41.52,155.38-25.45,6.7-41.52-155.38,25.45-6.7m0-26.79c-2.68,0-4.02,0-6.7,1.34l-25.45,6.7c-14.73,4.02-22.77,18.75-18.75,32.15l44.2,164.75c2.68,8.04,9.38,13.39,17.41,13.39h4.02l34.83-9.38c14.73-4.02,22.77-18.75,18.75-32.15l-41.52-155.38c-4.02-13.39-14.73-21.43-26.79-21.43h0Z"/>
    <path class="cls-1" d="m60.28,453.74c-5.36,0-10.72-4.02-13.39-9.38l-29.47-111.17c-1.34-6.7,1.34-13.39,6.7-16.07l38.84-17.41,40.18,150.02-42.86,4.02Z"/>
    <path class="cls-2" d="m54.92,317.12l32.15,120.55-26.79,2.68-29.47-111.17,24.11-12.06m17.41-37.5l-53.58,24.11C6.7,309.08,0,322.47,4.02,334.53l29.47,111.17c2.68,12.06,13.39,20.09,25.45,20.09h2.68l58.94-5.36-48.22-180.83h0Z"/>
    <path class="cls-2" d="m447.38,286.31l25.45,6.7-41.52,155.38-25.45-6.7,41.52-155.38m0-26.79c-12.06,0-22.77,8.04-25.45,20.09l-41.52,155.38c-4.02,14.73,4.02,29.47,18.75,32.15l34.83,9.38h4.02c8.04,0,14.73-5.36,17.41-13.39l44.2-164.75c4.02-14.73-4.02-29.47-18.75-32.15l-25.45-6.7h-8.04,0Z"/>
    <path class="cls-1" d="m487.56,453.74l-42.86-4.02,40.18-150.02,38.84,17.41c5.36,2.68,9.38,9.38,6.7,16.07l-28.13,111.17c-1.34,5.36-6.7,9.38-14.73,9.38h0Z"/>
    <path class="cls-2" d="m494.26,317.12l24.11,10.72-29.47,112.51-26.79-2.68,32.15-120.55m-17.41-37.5l-48.22,180.83,58.94,5.36h2.68c12.06,0,22.77-8.04,25.45-20.09l29.47-111.17c4.02-12.06-2.68-25.45-14.73-30.81l-53.58-24.11h0Z"/>
  </g>
</svg>