<?xml version="1.0" encoding="UTF-8"?>
<svg id="Layer_2" data-name="Layer 2" xmlns="http://www.w3.org/2000/svg" viewBox="0 0 1193.75 482">
  <defs>
    <style>
      .cls-1 {
        fill: #3c07ff;
      }
    </style>
  </defs>
  <g id="Layer_4" data-name="Layer 4">
    <g>
      <path class="cls-1" d="m100.62,4.88h86.94l100.62,187.56h-82.34l-14.79-32.1h-93.92l-14.79,32.1H0L100.62,4.88Zm17.72,109.69h51.5l-25.68-55.4-25.82,55.4Z"/>
      <path class="cls-1" d="m459,4.61h73.27v100.76c.28,70.9-57.78,91.27-128.11,91.41-70.34-.14-128.39-20.51-128.11-91.41V4.61h73.13v96.15c-.28,30.84,24.98,36.15,54.99,36.56,29.87-.42,55.26-5.72,54.85-36.56V4.61Z"/>
      <path class="cls-1" d="m732.1,4.88c51.5-.7,89.74,42.56,89.32,93.78.42,50.94-37.82,94.48-89.32,93.78h-166.91V4.88h166.91Zm-13.68,59.45h-80.11v68.66h80.11c18.98,0,29.73-15.49,29.73-34.33s-10.75-34.33-29.73-34.33Z"/>
      <path class="cls-1" d="m916.17,4.61v187.56h-73.13V4.61h73.13Z"/>
      <path class="cls-1" d="m1193.75,91.55v13.68c.28,70.9-57.5,91.41-127.97,91.55-70.62-.14-128.39-20.65-128.11-91.55v-13.68c-.28-71.03,57.5-91.41,128.11-91.55,70.62,0,127.97,20.65,127.97,91.55Zm-73.13,4.47c.42-30.56-24.98-36.15-54.85-36.56-30,.42-55.4,6-54.99,36.56v4.61c-.42,30.7,24.98,36.28,54.99,36.7,29.87-.42,55.26-6,54.85-36.7v-4.61Z"/>
    </g>
    <g>
      <path class="cls-1" d="m131.26,374.4h127.42v107.6h-36.56l-3.63-29.17c-21.77,21.49-54.85,29.17-86.67,29.17-70.62-.28-128.39-20.65-128.11-91.55v-13.68c-.28-71.04,57.5-91.41,128.11-91.55,65.03,0,118.62,17.72,126.86,75.5h-77.73c-4.61-6.28-11.3-10.47-19.96-12.7s-18.42-3.35-29.17-3.35c-30,.42-55.4,6-54.99,36.56v4.61c-.42,30.84,24.98,36.14,54.99,36.56,28.89,0,47.31-1.67,58.33-15.91h-58.89v-32.1Z"/>
      <path class="cls-1" d="m292.02,290.11h219.52v48.01h-146.39v24h146.39v43.4h-146.39v24h146.39v48.15h-219.52v-187.56Z"/>
      <path class="cls-1" d="m617.75,290.11h86.94l100.62,187.56h-82.34l-14.79-32.1h-93.92l-14.79,32.1h-82.34l100.62-187.56Zm17.72,109.69h51.5l-25.68-55.4-25.82,55.4Z"/>
      <path class="cls-1" d="m991.61,289.97c38.66-.42,71.45,32.1,70.89,70.89,0,14.1-3.77,26.93-11.3,38.38-7.4,11.3-17.31,19.96-29.59,25.68l40.89,52.61h-77.87l-35.31-45.77h-65.31v45.77h-73.13v-187.56h180.73Zm-107.6,54.85v31.96h89.18c4.47,0,8.23-1.54,11.3-4.61,3.21-3.21,4.75-6.98,4.75-11.3,0-8.93-7.12-16.05-16.05-16.05h-89.18Z"/>
    </g>
  </g>
</svg>