<?xml version="1.0" standalone="no"?>
<!DOCTYPE svg PUBLIC "-//W3C//DTD SVG 20010904//EN"
 "http://www.w3.org/TR/2001/REC-SVG-20010904/DTD/svg10.dtd">
<svg version="1.0" xmlns="http://www.w3.org/2000/svg"
 width="1092.000000pt" height="1092.000000pt" viewBox="0 0 1092.000000 1092.000000"
 preserveAspectRatio="xMidYMid meet">
<metadata>
Created by potrace 1.14, written by Peter Selinger 2001-2017
</metadata>
<g transform="translate(0.000000,1092.000000) scale(0.100000,-0.100000)"
fill="#000000" stroke="none">
<path d="M5058 10225 c-2 -1 -48 -5 -103 -9 -134 -9 -173 -14 -185 -21 -6 -3
-10 -1 -10 5 0 6 -5 8 -12 3 -7 -4 -22 -8 -33 -9 -17 -1 -93 -10 -160 -19 -11
-2 -38 -6 -60 -10 -22 -4 -51 -8 -65 -10 -14 -1 -56 -9 -95 -16 -38 -7 -73
-12 -77 -11 -5 1 -8 -3 -8 -9 0 -5 -3 -8 -8 -5 -4 2 -41 -4 -82 -14 -93 -24
-231 -60 -248 -65 -7 -3 -14 -5 -17 -5 -3 0 -21 -6 -40 -14 -19 -8 -35 -13
-35 -10 0 2 -16 -2 -35 -10 -20 -9 -38 -15 -40 -15 -13 1 -231 -75 -242 -84
-7 -5 -13 -6 -13 -2 0 4 -7 2 -15 -5 -8 -7 -15 -9 -15 -5 0 4 -6 2 -13 -4 -8
-6 -17 -8 -20 -4 -4 3 -7 0 -7 -7 0 -7 -2 -11 -6 -8 -4 5 -101 -33 -199 -77
-37 -17 -104 -44 -110 -45 -7 -1 -363 -183 -407 -209 -21 -11 -53 -29 -70 -39
-78 -44 -323 -196 -328 -202 -3 -4 -18 -14 -35 -23 -16 -8 -43 -27 -60 -41
-16 -14 -33 -26 -37 -26 -4 0 -13 -6 -20 -12 -7 -7 -36 -29 -63 -47 -28 -19
-52 -37 -55 -41 -3 -3 -30 -24 -60 -47 -30 -23 -67 -53 -82 -65 -15 -13 -46
-39 -69 -58 -24 -19 -60 -52 -81 -72 -21 -21 -40 -38 -42 -38 -6 0 -235 -229
-296 -296 -90 -97 -191 -220 -262 -318 -20 -28 -43 -58 -51 -66 -8 -8 -27 -35
-43 -60 -16 -25 -31 -47 -34 -50 -14 -14 -50 -70 -50 -79 0 -5 -3 -11 -7 -13
-9 -4 -53 -65 -53 -73 0 -3 -17 -32 -39 -63 -21 -31 -62 -100 -92 -152 -30
-52 -59 -104 -66 -115 -45 -74 -250 -501 -286 -595 -24 -63 -48 -124 -52 -135
-5 -11 -9 -22 -10 -25 -6 -25 -18 -59 -25 -75 -11 -23 -109 -323 -114 -345 -2
-8 -6 -23 -10 -32 -4 -9 -9 -22 -10 -30 -1 -7 -8 -33 -15 -58 -7 -25 -15 -52
-16 -60 -2 -8 -17 -67 -34 -132 -17 -64 -33 -131 -36 -150 -3 -18 -8 -40 -10
-48 -5 -17 -14 -69 -21 -115 -2 -16 -7 -48 -10 -70 -3 -22 -7 -50 -7 -62 -1
-13 -3 -23 -6 -23 -4 0 -6 -15 -7 -33 0 -17 -4 -63 -8 -102 -16 -172 -20 -280
-20 -570 0 -274 6 -445 20 -540 2 -16 6 -52 8 -80 3 -27 8 -70 11 -95 4 -25 8
-56 10 -70 2 -21 12 -88 19 -125 1 -5 4 -15 8 -20 11 -18 -1 -139 -17 -164 -5
-9 -9 -128 -5 -143 2 -5 4 -17 5 -28 1 -11 3 -21 5 -22 1 -2 3 -12 5 -23 2
-11 17 -69 33 -130 27 -98 107 -396 117 -435 2 -8 4 -15 5 -15 1 0 3 -9 5 -20
2 -11 13 -56 25 -100 18 -65 40 -150 55 -210 1 -5 4 -17 8 -25 3 -8 10 -37 17
-65 7 -27 14 -57 17 -65 4 -8 7 -22 9 -30 3 -16 3 -16 70 -265 25 -93 50 -186
54 -205 10 -44 58 -224 115 -430 14 -52 27 -102 29 -110 4 -24 16 -68 43 -160
39 -132 108 -226 216 -294 60 -38 127 -66 177 -74 69 -12 296 -5 435 13 27 4
92 10 210 20 192 17 182 18 190 -25 6 -31 65 -130 77 -130 6 0 9 -3 5 -6 -13
-14 104 -93 163 -110 72 -21 175 -17 273 11 50 15 101 29 112 31 11 2 103 27
205 55 102 27 192 52 200 54 64 14 118 31 140 42 14 7 29 13 33 13 16 0 113
68 147 103 66 67 73 76 101 133 37 73 60 164 61 239 0 38 -14 121 -23 132 -7
7 -9 13 -6 13 3 0 1 15 -4 33 -6 17 -12 43 -15 57 -2 14 -7 32 -10 40 -5 14
-31 105 -39 140 -2 8 -13 49 -25 90 -11 41 -23 84 -25 95 -8 38 -27 110 -32
125 -4 8 -7 22 -9 31 -2 8 -10 41 -19 72 -8 31 -22 83 -30 114 -9 31 -17 65
-18 75 -2 9 -6 21 -10 24 -4 4 -7 18 -7 30 0 13 -5 26 -10 29 -6 4 -8 10 -5
15 3 5 -1 28 -10 52 -8 25 -16 53 -18 64 -4 19 -16 70 -22 89 -1 6 -3 13 -4
17 -1 4 -7 22 -12 40 -23 78 -72 264 -73 278 -1 9 -5 20 -9 26 -5 9 -11 34
-21 91 -1 7 -5 16 -9 19 -4 4 -7 17 -7 29 0 11 -5 26 -12 33 -7 7 -9 12 -6 12
3 0 -2 30 -12 68 -10 37 -30 112 -45 167 -15 55 -28 108 -30 118 -2 9 -7 22
-10 28 -4 5 -8 20 -10 32 -2 19 -30 135 -39 162 -6 17 -33 117 -41 145 -2 8
-13 50 -25 92 -11 43 -23 85 -25 95 -3 18 -27 107 -67 253 -11 41 -22 81 -23
90 -2 8 -4 15 -5 15 -2 0 -7 18 -21 80 -6 28 -14 55 -18 60 -4 6 -13 29 -21
53 -7 23 -17 42 -22 42 -4 0 -8 5 -8 12 0 19 -90 131 -132 163 -21 17 -44 35
-51 40 -21 18 -123 64 -153 70 -112 21 -184 26 -202 12 -6 -5 -12 -7 -12 -4 0
3 -26 -3 -57 -14 -32 -11 -59 -19 -60 -19 -2 0 -4 0 -5 -1 -2 0 -10 -2 -18 -4
-8 -1 -68 -17 -133 -35 -64 -17 -127 -33 -140 -36 -38 -9 -52 -12 -52 -14 0
-2 0 -2 -91 -24 -55 -14 -100 -33 -174 -77 -25 -15 -103 -89 -132 -126 -24
-31 -69 -113 -62 -113 4 0 2 -6 -3 -12 -6 -7 -16 -36 -23 -65 -12 -52 -12 -52
-83 -85 -39 -18 -74 -33 -77 -33 -3 -1 -16 -7 -30 -15 -14 -8 -29 -15 -35 -17
-5 -1 -19 -5 -31 -8 -17 -5 -20 -3 -18 17 1 13 3 23 4 23 1 0 3 20 5 45 7 86
16 161 30 250 2 14 7 45 10 70 3 25 8 52 10 60 2 8 7 35 10 60 9 63 28 170 39
220 3 14 15 68 27 120 12 52 25 99 30 105 5 5 9 18 9 29 0 24 105 348 126 388
8 15 14 31 14 35 0 10 21 75 29 88 3 6 6 16 7 23 2 7 12 33 23 58 12 24 21 46
21 48 0 5 60 135 93 204 47 93 130 248 153 282 13 19 24 37 24 41 0 3 27 47
60 97 33 51 60 96 60 102 0 5 4 10 8 10 5 0 17 16 28 35 10 19 22 35 26 35 5
0 8 5 8 10 0 9 156 224 185 256 6 6 26 30 45 54 129 162 388 426 576 587 27
23 63 54 79 68 17 14 84 66 150 116 66 49 125 94 132 99 7 6 24 15 38 22 14 6
25 14 25 18 0 4 8 10 18 13 19 7 95 49 114 64 7 6 33 22 58 35 25 14 73 42
107 62 34 20 66 36 71 36 5 0 15 7 22 15 7 8 16 13 20 10 5 -3 10 -2 12 3 3 6
195 106 208 107 3 1 26 11 53 23 26 13 84 36 130 53 45 16 89 32 97 36 8 3 18
7 23 8 4 2 9 4 12 5 3 1 9 3 14 4 5 0 13 4 17 9 4 4 13 7 20 7 7 0 25 5 41 12
15 6 30 12 33 13 3 0 59 18 125 39 66 21 126 40 135 41 8 2 16 4 18 5 1 2 5 3
10 4 4 1 16 5 27 9 11 3 31 9 45 11 14 3 63 15 110 26 75 18 112 26 170 34 8
1 26 5 40 9 14 3 41 8 60 11 19 3 46 7 60 10 14 4 45 9 70 12 25 3 59 7 75 9
128 16 224 25 315 29 41 2 75 5 75 6 0 5 348 4 363 -1 9 -4 25 -2 35 3 9 5 17
5 17 1 0 -4 26 -9 58 -9 55 -2 130 -8 237 -18 44 -5 95 -12 235 -33 19 -3 37
-6 40 -8 3 -2 26 -6 50 -10 25 -3 63 -10 85 -15 22 -5 55 -11 73 -15 18 -3 60
-12 92 -19 33 -8 60 -12 60 -9 0 3 6 1 13 -5 6 -6 15 -10 20 -10 24 2 127 -26
127 -34 0 -5 4 -7 10 -3 9 5 37 -2 185 -50 97 -32 155 -54 188 -71 15 -8 27
-13 27 -10 0 5 118 -45 153 -65 10 -5 22 -7 27 -4 6 4 10 2 10 -3 0 -6 12 -13
27 -17 15 -3 82 -33 150 -66 67 -33 125 -59 129 -59 4 1 10 -2 13 -7 5 -9 95
-61 148 -87 13 -6 23 -14 23 -18 0 -5 7 -8 15 -8 8 0 15 -4 15 -10 0 -5 5 -10
11 -10 6 0 31 -13 56 -30 24 -16 46 -30 48 -30 8 0 104 -70 190 -137 122 -96
145 -114 212 -170 34 -29 65 -53 68 -53 3 0 16 -10 29 -22 13 -13 56 -52 97
-88 83 -72 349 -337 349 -346 0 -4 8 -14 18 -23 23 -21 141 -164 191 -232 22
-30 44 -59 50 -65 48 -56 282 -414 278 -425 -1 -4 6 -16 16 -27 10 -11 26 -35
36 -53 121 -231 157 -303 195 -388 24 -55 42 -102 38 -105 -3 -3 0 -6 6 -6 7
0 12 -8 12 -18 0 -10 3 -22 7 -26 4 -3 8 -12 9 -19 1 -7 21 -64 44 -127 23
-63 43 -119 44 -125 2 -5 6 -17 9 -25 34 -87 129 -429 141 -514 4 -21 8 -42
11 -46 3 -5 7 -21 9 -37 3 -15 7 -38 10 -51 9 -35 14 -57 20 -93 3 -19 7 -43
10 -54 2 -11 7 -40 10 -65 3 -25 8 -54 10 -65 2 -11 7 -51 10 -90 4 -38 9 -93
12 -122 l5 -52 -48 21 c-59 26 -54 20 -58 60 -4 54 -17 112 -28 125 -5 7 -6
13 -3 13 18 0 -63 126 -112 176 -46 46 -127 100 -167 110 -5 2 -53 15 -105 29
-52 14 -106 28 -120 31 -14 2 -36 9 -50 14 -23 8 -244 65 -300 77 -32 7 -227
7 -260 0 -174 -35 -309 -131 -378 -269 -27 -54 -98 -282 -107 -343 -1 -11 -3
-20 -4 -20 -2 0 -4 -7 -6 -15 -9 -41 -65 -253 -70 -259 -2 -4 -7 -21 -10 -37
-3 -16 -14 -63 -26 -104 -11 -41 -22 -84 -24 -95 -2 -11 -4 -20 -5 -20 -1 0
-3 -7 -5 -15 -2 -8 -18 -67 -35 -130 -17 -63 -33 -122 -35 -131 -2 -9 -12 -47
-24 -85 -11 -38 -22 -80 -25 -94 -3 -14 -9 -40 -15 -58 -5 -18 -10 -33 -10
-35 0 -1 -2 -9 -5 -17 -4 -14 -16 -60 -21 -85 -2 -5 -19 -73 -40 -150 -20 -77
-38 -144 -40 -150 -1 -5 -5 -17 -8 -25 -4 -8 -11 -35 -17 -60 -15 -61 -18 -75
-20 -77 -2 -2 -3 -11 -4 -20 -1 -10 -10 -45 -20 -78 -10 -33 -20 -69 -22 -80
-2 -11 -13 -51 -24 -90 -12 -38 -23 -80 -26 -93 -2 -12 -16 -64 -30 -115 -14
-50 -27 -99 -29 -107 -6 -22 -41 -154 -65 -245 -12 -44 -23 -87 -25 -95 -2 -8
-4 -17 -5 -20 -1 -3 -3 -9 -4 -15 -1 -5 -8 -30 -15 -55 -7 -25 -15 -52 -16
-60 -2 -8 -16 -60 -31 -115 -38 -141 -38 -245 0 -370 7 -24 42 -90 49 -93 4
-2 7 -10 7 -17 0 -8 12 -23 26 -34 15 -12 23 -21 19 -21 -16 0 93 -81 140
-104 53 -26 70 -32 124 -41 19 -3 39 -9 45 -13 6 -3 20 -8 31 -10 16 -2 61
-14 105 -27 3 -1 19 -5 35 -10 17 -4 77 -21 135 -36 58 -16 114 -31 125 -34
11 -2 35 -8 53 -14 18 -5 33 -10 35 -9 1 0 22 -6 47 -13 25 -7 52 -14 60 -16
16 -4 142 -4 175 0 11 1 29 7 40 13 11 6 32 14 46 17 34 8 129 102 154 152 11
22 23 42 28 43 4 2 7 13 7 24 0 18 5 19 48 14 61 -7 142 -15 217 -21 93 -7
187 -16 220 -21 17 -2 85 -6 152 -9 136 -5 234 13 308 57 89 53 102 63 148
116 59 69 104 161 122 252 2 8 9 35 16 60 7 25 14 54 16 65 2 11 13 51 24 89
11 38 23 77 25 87 7 30 12 52 23 87 5 17 7 32 4 32 -3 0 -1 6 4 13 6 6 11 19
11 27 0 8 12 58 27 110 15 52 28 102 30 110 2 8 14 56 28 105 14 50 28 102 31
117 2 15 7 31 10 36 3 5 7 19 10 33 3 13 10 44 17 69 6 25 13 56 15 69 3 14 7
28 10 33 3 4 12 34 20 65 8 32 29 110 45 173 17 63 32 122 34 130 2 8 10 42
20 75 9 33 21 78 26 100 5 22 23 88 40 147 17 60 32 117 35 128 2 11 7 30 10
42 3 13 7 30 9 38 2 8 4 15 5 15 1 0 3 7 5 15 1 8 14 60 28 114 24 94 30 209
14 266 -22 81 -74 172 -134 238 -42 46 -58 71 -58 92 0 17 2 30 5 30 7 0 12
238 13 595 0 339 -7 529 -27 725 -12 115 -16 147 -22 180 -3 19 -7 44 -8 55
-9 56 -30 161 -52 253 -13 56 -26 113 -28 125 -3 12 -10 38 -16 57 -11 36 -15
50 -26 108 -3 17 -11 32 -16 32 -5 0 -7 4 -4 8 3 5 -10 58 -29 117 -19 60 -32
112 -29 116 2 4 0 9 -6 11 -6 2 -12 13 -14 25 -5 24 -41 130 -58 173 -6 14
-14 34 -18 45 -5 11 -14 36 -21 55 -8 19 -14 37 -14 40 0 3 -6 14 -12 25 -6
11 -12 23 -12 27 -2 9 -27 71 -46 113 -7 17 -23 53 -35 80 -47 105 -163 332
-228 446 -11 20 -26 47 -34 60 -7 13 -15 26 -18 29 -3 3 -14 21 -24 40 -11 19
-31 53 -45 75 -14 22 -34 56 -44 75 -11 19 -27 44 -36 55 -9 11 -23 32 -31 48
-7 15 -17 27 -22 27 -4 0 -8 7 -8 15 0 8 -4 15 -10 15 -5 0 -10 5 -10 10 0 6
-5 16 -10 23 -6 7 -47 62 -92 122 -78 106 -195 253 -227 286 -9 9 -45 48 -79
87 -59 66 -164 171 -272 274 -74 70 -228 200 -325 273 -49 37 -91 72 -93 76
-2 5 -8 9 -12 9 -12 0 -83 48 -92 63 -4 7 -8 8 -8 4 0 -5 -17 4 -37 20 -21 16
-81 56 -133 89 -52 32 -97 61 -100 64 -3 3 -23 14 -45 25 -22 11 -42 22 -45
25 -3 3 -26 17 -52 30 -27 14 -48 28 -48 32 0 5 -9 8 -20 8 -11 0 -20 3 -20 8
0 4 -10 12 -23 18 -12 6 -94 47 -182 92 -88 44 -187 92 -220 107 -67 30 -255
106 -270 110 -9 2 -22 6 -62 22 -10 3 -20 7 -23 8 -3 1 -12 4 -20 8 -28 11
-215 72 -222 72 -3 0 -10 3 -14 8 -4 4 -18 7 -31 7 -13 0 -23 5 -23 10 0 6 -6
10 -12 9 -7 -1 -20 0 -28 3 -19 7 -160 48 -180 53 -33 7 -106 26 -130 34 -26
9 -108 28 -150 35 -56 9 -97 16 -125 22 -29 6 -76 12 -140 18 -16 2 -50 6 -75
10 -78 11 -123 16 -200 22 -41 3 -95 8 -120 10 -47 6 -706 14 -712 9z m256
-507 c-4 -7 -3 -8 5 -4 17 11 101 14 107 4 3 -4 13 -4 23 2 10 5 21 7 24 4 3
-3 64 -7 135 -9 138 -4 229 -11 372 -30 19 -2 55 -7 80 -10 46 -6 145 -22 190
-31 14 -3 39 -7 57 -9 18 -2 37 -7 43 -10 7 -4 28 -8 48 -10 20 -2 48 -6 62
-10 14 -3 36 -8 50 -10 14 -1 45 -8 70 -14 25 -7 54 -13 66 -15 25 -3 153 -36
174 -44 19 -7 17 -6 70 -21 118 -33 360 -127 408 -157 12 -8 22 -12 22 -10 0
6 368 -182 380 -194 3 -3 23 -14 45 -25 22 -11 42 -23 45 -26 3 -3 25 -17 50
-30 150 -84 355 -210 358 -220 2 -5 8 -9 14 -9 6 0 26 -11 44 -25 18 -14 35
-25 38 -25 3 0 14 -8 24 -17 11 -10 52 -43 91 -73 40 -30 86 -66 101 -80 16
-14 54 -47 86 -75 111 -95 318 -307 467 -479 10 -12 31 -34 46 -51 15 -16 60
-70 100 -120 40 -49 79 -98 87 -108 22 -27 194 -287 194 -293 0 -4 14 -23 30
-44 17 -21 30 -40 30 -43 0 -3 25 -47 56 -98 64 -109 265 -513 280 -564 1 -5
17 -48 34 -95 64 -174 98 -278 93 -284 -4 -3 0 -6 7 -6 7 0 11 -2 8 -5 -3 -3
3 -34 14 -68 26 -83 79 -284 84 -322 3 -16 7 -41 10 -55 3 -14 8 -36 10 -49 3
-13 11 -51 19 -84 8 -33 12 -64 9 -69 -3 -4 0 -8 7 -8 7 0 10 -2 7 -5 -3 -3
-1 -27 4 -53 9 -45 13 -75 22 -144 2 -18 7 -49 10 -68 3 -19 8 -64 10 -100 l4
-65 -15 50 c-8 28 -32 113 -55 190 -22 77 -53 178 -70 225 -16 47 -31 90 -32
95 -1 6 -12 32 -24 59 -12 27 -22 53 -22 58 0 5 -11 31 -25 58 -14 27 -25 56
-25 64 0 8 -4 16 -8 18 -5 2 -23 37 -42 78 -78 176 -229 470 -282 547 -15 23
-28 44 -28 47 0 4 -22 37 -100 150 -74 107 -271 361 -375 483 -103 120 -445
469 -530 540 -65 54 -167 134 -195 153 -12 8 -36 27 -54 42 -17 15 -39 30 -48
34 -10 3 -18 10 -18 15 0 5 -7 9 -15 9 -8 0 -15 4 -15 8 0 4 -13 16 -30 25
-16 10 -35 23 -42 30 -20 18 -156 110 -218 147 -123 73 -230 130 -230 124 0
-3 -12 3 -27 13 -42 28 -170 88 -388 182 -66 29 -129 56 -140 61 -38 17 -210
79 -290 104 -69 22 -109 33 -220 62 -11 3 -29 7 -40 9 -11 2 -20 4 -20 5 0 1
-7 3 -15 5 -36 7 -228 44 -260 50 -19 3 -42 8 -50 10 -8 2 -35 7 -60 10 -25 2
-54 7 -66 9 -11 2 -47 7 -80 11 -32 4 -72 9 -89 11 -95 12 -268 24 -412 29
-56 1 -107 6 -114 10 -8 5 -10 4 -5 -3 5 -9 0 -9 -18 -2 -14 5 -26 6 -26 2 0
-9 -92 -8 -108 2 -6 4 -12 4 -12 -1 0 -4 -28 -8 -63 -9 -131 -2 -384 -23 -477
-39 -14 -2 -45 -7 -70 -10 -25 -3 -56 -7 -70 -10 -14 -3 -39 -7 -57 -9 -53 -7
-143 -27 -243 -53 -52 -14 -104 -26 -115 -28 -11 -1 -27 -5 -35 -8 -8 -3 -44
-13 -79 -22 -36 -9 -83 -23 -105 -30 -44 -14 -248 -78 -256 -80 -3 -1 -16 -6
-30 -12 -14 -7 -59 -24 -100 -39 -41 -16 -78 -32 -81 -37 -3 -5 -10 -9 -15 -9
-13 -1 -27 -6 -137 -50 -92 -37 -154 -68 -290 -142 -88 -47 -238 -136 -247
-146 -3 -3 -39 -27 -80 -54 -41 -27 -76 -53 -78 -58 -2 -4 -8 -8 -13 -8 -5 0
-33 -19 -62 -42 -29 -24 -70 -56 -92 -73 -62 -48 -345 -285 -400 -334 -117
-107 -425 -424 -425 -438 0 -2 -10 -14 -22 -27 -13 -13 -36 -40 -53 -61 -16
-21 -51 -66 -77 -99 -27 -34 -52 -66 -58 -73 -6 -7 -20 -27 -33 -45 -38 -56
-82 -113 -89 -116 -5 -2 -8 -8 -8 -13 0 -10 -35 -62 -57 -86 -6 -7 -15 -22
-18 -33 -3 -11 -10 -20 -14 -20 -4 0 -17 -19 -30 -42 -29 -57 -44 -82 -54 -89
-5 -3 -9 -13 -11 -21 -1 -9 -7 -22 -13 -29 -19 -24 -230 -446 -238 -479 -1 -3
-14 -32 -29 -65 -15 -33 -39 -85 -53 -115 -14 -30 -26 -60 -27 -66 -1 -7 -8
-19 -15 -28 -7 -9 -11 -16 -8 -16 4 0 -2 -20 -13 -45 -20 -46 -90 -248 -95
-275 -2 -8 -8 -28 -15 -45 -6 -16 -11 -30 -10 -30 3 0 -11 -58 -17 -75 -4 -8
-7 -19 -8 -25 -1 -5 -3 -12 -4 -15 -1 -3 -4 -17 -6 -31 -2 -14 -8 -43 -14 -65
-5 -21 -13 -55 -16 -74 -3 -19 -11 -60 -17 -90 -6 -30 -11 -59 -10 -63 2 -5
-2 -6 -8 -2 -6 3 -8 10 -6 14 3 4 8 59 11 121 3 63 8 117 11 122 3 4 7 36 9
70 2 35 6 77 9 93 14 85 20 133 20 163 1 17 4 32 8 32 4 0 7 10 7 23 -1 22 3
46 16 117 4 19 9 49 11 65 2 17 6 41 9 55 3 14 7 41 10 60 2 19 11 67 20 105
10 39 19 84 22 100 3 17 9 38 14 48 5 9 7 17 5 17 -3 0 -1 11 4 25 5 14 12 37
15 50 3 14 7 36 10 50 3 13 10 37 17 52 6 16 12 33 13 38 6 24 48 143 61 172
8 17 14 34 14 37 0 3 12 31 26 63 14 32 33 74 41 93 39 86 150 304 210 409 37
64 73 128 80 144 8 15 19 27 24 27 6 0 8 4 5 8 -3 5 3 20 12 33 21 29 48 75
64 109 7 14 15 27 19 30 3 3 12 16 19 30 15 29 101 163 110 170 3 3 14 18 24
35 11 16 23 34 28 40 4 5 38 49 76 96 37 47 96 119 132 160 84 96 408 419 484
484 33 28 72 61 88 75 41 36 46 41 120 95 38 28 68 53 68 58 0 4 6 7 13 7 7 0
22 8 33 18 27 24 182 122 195 122 6 0 7 5 4 10 -3 6 -1 10 5 10 6 0 44 23 85
50 41 28 76 50 79 50 3 0 35 18 71 40 36 22 68 40 71 40 3 0 19 9 35 21 16 11
29 17 29 14 0 -3 12 2 28 13 24 17 160 85 222 111 14 6 32 15 40 20 34 20 119
54 238 97 141 50 164 58 207 75 17 7 37 13 45 15 8 1 92 25 185 52 94 27 190
53 215 57 25 4 54 8 65 10 11 2 20 4 20 5 0 1 11 3 25 6 36 6 122 23 145 28
11 2 56 9 100 16 44 7 87 13 95 15 8 2 44 6 80 9 36 4 76 9 90 11 39 7 143 15
279 20 68 3 126 7 129 10 10 9 13 5 6 -7z m-3250 -5318 c29 -107 34 -127 40
-155 2 -11 9 -32 15 -47 6 -16 8 -28 5 -28 -4 0 -1 -7 6 -15 7 -8 10 -15 7
-15 -3 0 -1 -15 4 -32 6 -18 12 -40 14 -48 9 -40 79 -301 94 -349 6 -18 10
-36 9 -40 -1 -3 2 -13 5 -21 5 -13 37 -131 62 -230 4 -14 9 -32 12 -40 3 -8 7
-24 9 -35 1 -11 12 -54 24 -95 12 -41 23 -82 25 -90 2 -8 8 -30 14 -48 5 -18
11 -36 12 -40 1 -4 3 -11 4 -17 2 -5 6 -21 8 -35 3 -14 13 -52 22 -85 9 -33
32 -118 52 -190 19 -71 39 -146 44 -165 5 -19 12 -46 15 -60 2 -14 9 -40 15
-58 6 -18 12 -39 13 -45 6 -25 19 -75 43 -157 13 -47 26 -96 29 -110 6 -32 45
-180 52 -200 3 -8 6 -19 7 -25 2 -5 17 -64 35 -130 18 -66 34 -127 35 -135 1
-8 5 -22 7 -30 6 -15 27 -90 34 -119 2 -9 8 -36 14 -60 6 -24 9 -46 6 -48 -2
-3 -19 -9 -38 -13 -18 -5 -51 -14 -73 -20 -22 -6 -51 -13 -65 -16 -14 -3 -47
-12 -75 -20 -27 -9 -61 -18 -75 -20 -14 -3 -56 -14 -95 -25 -38 -10 -72 -19
-75 -19 -5 0 -20 49 -35 115 -8 37 -56 210 -62 225 -3 8 -7 24 -8 35 -2 11
-10 46 -19 76 -9 31 -19 65 -21 75 -2 11 -11 44 -20 74 -8 30 -17 68 -20 84
-3 16 -8 33 -11 38 -3 4 -7 18 -10 30 -3 13 -6 28 -8 33 -2 6 -6 24 -10 40 -4
17 -10 37 -14 45 -3 8 -7 28 -9 44 -2 16 -8 35 -14 42 -6 8 -9 14 -6 14 3 0 1
15 -4 33 -6 17 -12 39 -14 47 -2 8 -11 42 -20 75 -9 33 -18 67 -20 75 -2 8 -4
16 -4 18 -1 1 -1 4 -2 7 0 2 -5 19 -10 37 -6 18 -12 40 -14 49 -2 10 -17 66
-33 125 -16 60 -33 123 -37 139 -5 17 -9 35 -11 40 -56 205 -56 207 -56 228 1
9 -3 17 -7 17 -4 0 -13 28 -21 63 -7 34 -15 67 -16 72 -2 6 -8 26 -13 45 -5
19 -17 62 -26 95 -9 33 -18 67 -20 75 -3 14 -17 64 -60 225 -9 33 -18 68 -21
78 -7 27 -12 48 -30 112 -9 33 -18 69 -21 80 -5 26 -9 36 -16 55 -3 8 -8 26
-10 40 -3 14 -14 59 -26 100 -28 101 -53 202 -49 205 5 4 242 66 273 72 17 3
38 9 48 14 9 5 17 7 17 5 0 -3 18 1 39 9 22 7 54 16 71 19 18 2 35 7 38 10 11
12 20 -9 46 -104z m6981 81 c3 -1 10 -3 17 -5 7 -2 40 -11 73 -19 326 -84 327
-85 307 -110 -7 -8 -10 -16 -7 -19 3 -2 0 -20 -6 -39 -8 -27 -38 -139 -64
-239 -2 -8 -11 -40 -20 -70 -8 -30 -17 -68 -20 -84 -3 -16 -10 -37 -16 -47 -5
-10 -9 -22 -8 -26 1 -4 0 -10 -1 -13 -1 -3 -3 -12 -5 -20 -5 -22 -40 -152 -70
-260 -14 -52 -28 -104 -30 -115 -2 -11 -4 -21 -6 -22 -1 -2 -3 -7 -4 -13 -1
-5 -3 -11 -5 -12 -1 -2 -3 -10 -5 -18 -12 -53 -16 -73 -35 -140 -26 -93 -29
-105 -34 -130 -3 -11 -7 -24 -10 -28 -3 -5 -7 -19 -9 -33 -5 -25 -30 -121 -99
-374 -22 -82 -42 -159 -45 -170 -8 -39 -11 -50 -13 -50 -2 0 -7 -20 -15 -59
-3 -16 -9 -34 -13 -40 -3 -6 -7 -17 -8 -26 -3 -24 -11 -53 -49 -193 -20 -73
-38 -141 -39 -152 -2 -11 -6 -27 -9 -35 -9 -21 -119 -432 -121 -450 -1 -9 -5
-20 -8 -25 -3 -6 -9 -26 -13 -45 -13 -62 -37 -130 -47 -130 -5 0 -17 4 -26 9
-9 5 -30 12 -47 15 -16 3 -48 10 -70 16 -22 6 -47 12 -55 14 -321 84 -303 77
-290 111 5 14 12 36 14 48 3 12 23 90 46 172 22 83 43 161 46 175 3 14 12 48
20 75 9 28 18 61 20 75 5 26 44 167 70 255 8 28 16 60 19 73 3 12 8 32 11 45
3 12 7 29 9 37 2 8 4 16 4 18 1 1 1 3 0 5 0 1 4 14 10 30 6 15 13 38 15 50 5
23 8 35 26 102 6 22 13 47 15 55 2 8 4 15 5 15 2 0 7 20 15 59 3 16 10 37 16
48 5 10 8 18 5 18 -2 0 4 30 15 68 12 37 22 76 23 87 2 11 4 20 5 20 2 0 4 11
7 23 2 13 15 63 29 111 14 49 27 97 29 107 2 11 10 39 17 64 16 57 17 61 23
85 2 11 19 72 36 135 17 63 33 126 36 139 3 14 7 28 10 33 3 4 7 16 9 26 1 9
8 37 15 62 7 25 14 52 16 60 1 8 21 83 44 165 22 83 42 157 45 165 2 8 11 42
20 75 9 33 18 67 20 75 1 8 8 35 15 60 7 25 13 50 15 55 3 15 16 67 21 87 4
14 10 15 55 3 27 -7 52 -14 54 -14z"/>
</g>
</svg>
